# xmcd CD Database Entry
#
# Track frame offsets:
# 150
# 16307
# 36445
# 55207
# 72777
# 87735
# 106559
# 119172
# 135357
# 160549
# 181371
# 200740
# 230578
# 231841
# 233116
# 234391
# 235666
# 236941
# 238216
# 239491
# 240766
# 242041
# 243316
# 244591
# 245866
# 247141
# 248416
# 249691
# 250966
# 252241
# 253516
# 254791
# 256066
# 257341
# 258616
# 259891
# 261166
# 262441
# 263716
# 264991
# 266266
# 267541
# 268816
# 270091
# 271366
# 272641
# 273916
# 275191
# 276466
# 277741
# 279016
# 280291
# 281566
# 282841
# 284116
# 285391
# 286666
# 287941
# 289216
# 290491
# 291766
# 293041
# 294316
# 295591
# 296866
# 298141
# 299416
# 300691
# 301966
# 303241
# 304516
# 305791
# 307066
# 308341
# 309616
# 310891
# 312165
#
# Disc length: 4415 seconds
#
# Revision: 2
# Processed by: cddbd v1.4PL0 Copyright (c) Steve Scherf et al.
# Submitted via: tcd 2.0b
#
DISCID=cd113d4d
DTITLE=Benjamin Gate - Untitled
DYEAR=1900
DGENRE=
TTITLE0=How Long
TTITLE1=Scream
TTITLE2=All Over Me
TTITLE3=Heaven
TTITLE4=Lay It Down
TTITLE5=Nightglow
TTITLE6=Blow My Mind
TTITLE7=Halo
TTITLE8=Rush
TTITLE9=Secret
TTITLE10=Hands
TTITLE11=Live Out Loud
TTITLE12=1
TTITLE13=2
TTITLE14=3
TTITLE15=4
TTITLE16=5
TTITLE17=6
TTITLE18=7
TTITLE19=8
TTITLE20=9
TTITLE21=10
TTITLE22=11
TTITLE23=12
TTITLE24=13
TTITLE25=14
TTITLE26=15
TTITLE27=16
TTITLE28=17
TTITLE29=18
TTITLE30=19
TTITLE31=20
TTITLE32=21
TTITLE33=22
TTITLE34=23
TTITLE35=24
TTITLE36=25
TTITLE37=26
TTITLE38=27
TTITLE39=28
TTITLE40=29
TTITLE41=30
TTITLE42=31
TTITLE43=32
TTITLE44=33
TTITLE45=34
TTITLE46=35
TTITLE47=36
TTITLE48=37
TTITLE49=38
TTITLE50=39
TTITLE51=40
TTITLE52=41
TTITLE53=42
TTITLE54=43
TTITLE55=44
TTITLE56=45
TTITLE57=46
TTITLE58=47
TTITLE59=48
TTITLE60=49
TTITLE61=50
TTITLE62=51
TTITLE63=52
TTITLE64=53
TTITLE65=54
TTITLE66=55
TTITLE67=56
TTITLE68=57
TTITLE69=58
TTITLE70=59
TTITLE71=60
TTITLE72=61
TTITLE73=62
TTITLE74=63
TTITLE75=64
TTITLE76=Bonus Track
EXTD=
EXTT0=
EXTT1=
EXTT2=
EXTT3=
EXTT4=
EXTT5=
EXTT6=
EXTT7=
EXTT8=
EXTT9=
EXTT10=
EXTT11=
EXTT12=
EXTT13=
EXTT14=
EXTT15=
EXTT16=
EXTT17=
EXTT18=
EXTT19=
EXTT20=
EXTT21=
EXTT22=
EXTT23=
EXTT24=
EXTT25=
EXTT26=
EXTT27=
EXTT28=
EXTT29=
EXTT30=
EXTT31=
EXTT32=
EXTT33=
EXTT34=
EXTT35=
EXTT36=
EXTT37=
EXTT38=
EXTT39=
EXTT40=
EXTT41=
EXTT42=
EXTT43=
EXTT44=
EXTT45=
EXTT46=
EXTT47=
EXTT48=
EXTT49=
EXTT50=
EXTT51=
EXTT52=
EXTT53=
EXTT54=
EXTT55=
EXTT56=
EXTT57=
EXTT58=
EXTT59=
EXTT60=
EXTT61=
EXTT62=
EXTT63=
EXTT64=
EXTT65=
EXTT66=
EXTT67=
EXTT68=
EXTT69=
EXTT70=
EXTT71=
EXTT72=
EXTT73=
EXTT74=
EXTT75=
EXTT76=
PLAYORDER=
